<svg xmlns="http://www.w3.org/2000/svg" viewBox="0 0 1200 630" width="1200" height="630">
  <!-- Background — near-black -->
  <rect width="1200" height="630" fill="#0E0E0E"/>

  <!-- Barber pole stripe top -->
  <rect x="0" y="0" width="1200" height="8" fill="none"/>
  <rect x="0" y="0" width="100" height="8" fill="#8B1A1A"/>
  <rect x="100" y="0" width="50" height="8" fill="#F5F0E6"/>
  <rect x="150" y="0" width="100" height="8" fill="#A67C00"/>
  <rect x="250" y="0" width="100" height="8" fill="#8B1A1A"/>
  <rect x="350" y="0" width="50" height="8" fill="#F5F0E6"/>
  <rect x="400" y="0" width="100" height="8" fill="#A67C00"/>
  <rect x="500" y="0" width="100" height="8" fill="#8B1A1A"/>
  <rect x="600" y="0" width="50" height="8" fill="#F5F0E6"/>
  <rect x="650" y="0" width="100" height="8" fill="#A67C00"/>
  <rect x="750" y="0" width="100" height="8" fill="#8B1A1A"/>
  <rect x="850" y="0" width="50" height="8" fill="#F5F0E6"/>
  <rect x="900" y="0" width="100" height="8" fill="#A67C00"/>
  <rect x="1000" y="0" width="100" height="8" fill="#8B1A1A"/>
  <rect x="1100" y="0" width="50" height="8" fill="#F5F0E6"/>
  <rect x="1150" y="0" width="50" height="8" fill="#A67C00"/>

  <!-- Barber pole stripe bottom -->
  <rect x="0" y="622" width="100" height="8" fill="#8B1A1A"/>
  <rect x="100" y="622" width="50" height="8" fill="#F5F0E6"/>
  <rect x="150" y="622" width="100" height="8" fill="#A67C00"/>
  <rect x="250" y="622" width="100" height="8" fill="#8B1A1A"/>
  <rect x="350" y="622" width="50" height="8" fill="#F5F0E6"/>
  <rect x="400" y="622" width="100" height="8" fill="#A67C00"/>
  <rect x="500" y="622" width="100" height="8" fill="#8B1A1A"/>
  <rect x="600" y="622" width="50" height="8" fill="#F5F0E6"/>
  <rect x="650" y="622" width="100" height="8" fill="#A67C00"/>
  <rect x="750" y="622" width="100" height="8" fill="#8B1A1A"/>
  <rect x="850" y="622" width="50" height="8" fill="#F5F0E6"/>
  <rect x="900" y="622" width="100" height="8" fill="#A67C00"/>
  <rect x="1000" y="622" width="100" height="8" fill="#8B1A1A"/>
  <rect x="1100" y="622" width="50" height="8" fill="#F5F0E6"/>
  <rect x="1150" y="622" width="50" height="8" fill="#A67C00"/>

  <!-- Left vertical barber pole accent -->
  <rect x="0" y="0" width="8" height="630" fill="none"/>
  <rect x="0" y="0" width="8" height="80" fill="#8B1A1A"/>
  <rect x="0" y="80" width="8" height="40" fill="#F5F0E6"/>
  <rect x="0" y="120" width="8" height="80" fill="#A67C00"/>
  <rect x="0" y="200" width="8" height="40" fill="#F5F0E6"/>
  <rect x="0" y="240" width="8" height="80" fill="#8B1A1A"/>
  <rect x="0" y="320" width="8" height="40" fill="#F5F0E6"/>
  <rect x="0" y="360" width="8" height="80" fill="#A67C00"/>
  <rect x="0" y="440" width="8" height="40" fill="#F5F0E6"/>
  <rect x="0" y="480" width="8" height="80" fill="#8B1A1A"/>
  <rect x="0" y="560" width="8" height="40" fill="#F5F0E6"/>
  <rect x="0" y="600" width="8" height="30" fill="#A67C00"/>

  <!-- Grid lines subtle -->
  <line x1="0" y1="210" x2="1200" y2="210" stroke="#1A1410" stroke-width="1"/>
  <line x1="0" y1="420" x2="1200" y2="420" stroke="#1A1410" stroke-width="1"/>

  <!-- Eyebrow -->
  <text x="80" y="200" font-family="Arial Narrow, Arial, sans-serif" font-size="18" font-weight="700" letter-spacing="6" fill="#A67C00" text-transform="uppercase">EST. 2009  ·  CHICAGO, IL  ·  WALK-INS WELCOME</text>

  <!-- Main heading -->
  <text x="80" y="310" font-family="Arial Narrow, Arial, sans-serif" font-size="96" font-weight="700" letter-spacing="4" fill="#F5F0E6">NOBLE</text>
  <text x="80" y="410" font-family="Arial Narrow, Arial, sans-serif" font-size="96" font-weight="700" letter-spacing="4" fill="#F5F0E6">&amp; <tspan fill="#8B1A1A">SHARP</tspan></text>

  <!-- Tagline -->
  <text x="80" y="470" font-family="Arial, sans-serif" font-size="22" letter-spacing="3" fill="#C8B89A">CLASSIC CRAFT. SHARP RESULTS.</text>

  <!-- Service tags -->
  <rect x="80" y="510" width="160" height="36" rx="2" fill="#8B1A1A"/>
  <text x="160" y="532" font-family="Arial Narrow, Arial, sans-serif" font-size="15" font-weight="700" letter-spacing="2" fill="#F5F0E6" text-anchor="middle">HAIRCUTS</text>

  <rect x="252" y="510" width="160" height="36" rx="2" fill="#2A2218"/>
  <text x="332" y="532" font-family="Arial Narrow, Arial, sans-serif" font-size="15" font-weight="700" letter-spacing="2" fill="#C8B89A" text-anchor="middle">FADES</text>

  <rect x="424" y="510" width="200" height="36" rx="2" fill="#2A2218"/>
  <text x="524" y="532" font-family="Arial Narrow, Arial, sans-serif" font-size="15" font-weight="700" letter-spacing="2" fill="#C8B89A" text-anchor="middle">BEARD GROOMING</text>

  <rect x="636" y="510" width="220" height="36" rx="2" fill="#2A2218"/>
  <text x="746" y="532" font-family="Arial Narrow, Arial, sans-serif" font-size="15" font-weight="700" letter-spacing="2" fill="#C8B89A" text-anchor="middle">HOT-TOWEL SHAVES</text>
</svg>
